<svg id="Hope_Icon" xmlns="http://www.w3.org/2000/svg" viewBox="0 0 497.28 497.87"><title>2017.4.10_Hope_Barlanark_LOGO_ICON_BLACK_V3</title><path id="Bottom_Right" data-name="Bottom Right" d="M608.93,497.42c-2.16,3.51-.81,8.37-.29,13.74q3,30.76,4.66,61.63a1534.19,1534.19,0,0,1-.63,180.37c-.38,6.12-.44,13.19,4.17,17.24,5.47,4.81,14,2.42,20.63-.5A253.38,253.38,0,0,0,788.59,518.77c-.64-8.53-2-17.73-8.14-23.72-5.4-5.3-13.32-6.93-20.8-8.09a367.69,367.69,0,0,0-117.15.8c-9.29,1.56-19.94,2.65-28.76,6.05A9.18,9.18,0,0,0,608.93,497.42Z" transform="translate(-292 -291.11)"/><path id="Bottom_Middle" data-name="Bottom Middle" d="M582.69,513.55a6.23,6.23,0,0,0-1.08-.47c-3-1-6.28.51-9.05,2.08-8.08,4.56-15.33,10-22.61,15.66-2,1.59-4.09,3.08-4.66,5.71-.9,4.09.09,8.92.31,13.06l1.14,21.82c1,19.66,2,39.31,2.69,59s.92,39.54.44,59.3-1.71,39.38-4.08,58.94c-1.17,9.64-2.92,19.16-4.31,28.76-1.9,13.09,13.45,11.91,22.66,11.19,8.17-.64,16.52-4,21.18-10.61,4.12-5.84,4.83-13.28,5.35-20.36A1340.87,1340.87,0,0,0,587.41,524C587,520.09,586,515.42,582.69,513.55Z" transform="translate(-292 -291.11)"/><path id="Bottom_left" data-name="Bottom left" d="M330.68,666.14c2.65-10.42,20.24-15.25,28.46-19.67L404.61,622,451.27,597c8.43-4.53,16.29-10,24.58-14.79,10-5.75,20.32-14.48,22.93,1.34a525.11,525.11,0,0,1,6.32,60.35A593.62,593.62,0,0,1,498.28,765c-1,6.26-2.68,13.37-8.31,16.29-4.84,2.51-10.71.88-15.85-.93a308.38,308.38,0,0,1-136-95.61c-3.37-4.14-6.74-8.6-7.62-13.87A11.37,11.37,0,0,1,330.68,666.14Z" transform="translate(-292 -291.11)"/><g id="Top_Right" data-name="Top Right"><path d="M550.87,293.13a4.78,4.78,0,0,0-.53,2.84c.36,5,3.75,10.6,5.8,15.1a576.89,576.89,0,0,1,27.38,72.45c6.76,22.3,15.19,62.88,15.19,62.88a4.23,4.23,0,0,0,5.72,3.2s11.58-4.16,13-4.63q9.44-3,19-5.44a362.59,362.59,0,0,1,78.15-11.16c12.81-.42,25.77-.49,38.45-2.55,14.8-2.41-9.6-32.83-12.89-36.93-44.11-55-111.06-91-181.25-97.63C555.68,291,552.19,290.9,550.87,293.13Z" transform="translate(-292 -291.11)"/></g><g id="Top_Middle" data-name="Top Middle"><path d="M483.79,302.9q-.13.25-.24.52c-2.37,5.8,5.27,16.51,7.55,21.73q11.25,25.82,20.37,52.59C523.62,413.38,538,482.5,538,482.5c.56,2.69,2.92,3.68,5.23,2.2l27.32-17.5c2.87-1.84,5.92-3.9,7.13-7.21,1.12-3.07.4-6.52-.36-9.73A759,759,0,0,0,531.3,314.55c-2.64-5.88-5.54-12-10.53-15.8-5.37-4.12-12.47-5-19-3.91C497,295.64,486.53,297.66,483.79,302.9Z" transform="translate(-292 -291.11)"/></g><path id="top_Left" data-name="top Left" d="M315.26,435.9c17.84-39,45.29-73.72,80.12-99.31,9-6.64,17.33-13.36,28.64-7.09,8.57,4.75,12.49,15.85,15.39,24.53,4.84,14.47,10.89,28.51,15.76,43q15.6,46.35,26.54,94.08c2.09,9.11,4,19.08-.21,27.46-3.36,6.76-10,11.17-16.55,15.06a364,364,0,0,1-144.36,48.9c-7.86.91-16.93,1.15-22.39-4.55-3.89-4.07-4.78-10.06-5.28-15.65q-.35-3.95-.57-7.9C290.1,513.73,298.37,472.88,315.26,435.9Z" transform="translate(-292 -291.11)"/></svg>