<svg xmlns="http://www.w3.org/2000/svg" viewBox="0 0 1085 1083"><defs><style>.cls-1{fill:#4e4e4e;stroke:#000;stroke-miterlimit:10;}.cls-2{fill:#fff;}</style></defs><title>2017.4.10_Hope_Barlanark_LOGO_ICON_WHITE_V3</title><g id="Layer_2" data-name="Layer 2"><rect class="cls-1" x="0.5" y="0.5" width="1084" height="1082"/></g><g id="V3"><path id="Bottom_Right" data-name="Bottom Right" class="cls-2" d="M608.46,497.93c-2.16,3.51-.81,8.37-.29,13.74q3,30.76,4.66,61.63a1534.19,1534.19,0,0,1-.63,180.37c-.38,6.12-.44,13.19,4.17,17.24,5.47,4.81,14,2.42,20.63-.5A253.38,253.38,0,0,0,788.12,519.28c-.64-8.53-2-17.73-8.14-23.72-5.4-5.3-13.32-6.93-20.8-8.09a367.69,367.69,0,0,0-117.15.8c-9.29,1.56-19.94,2.65-28.76,6.05A9.18,9.18,0,0,0,608.46,497.93Z" transform="translate(1)"/><path id="Bottom_Middle" data-name="Bottom Middle" class="cls-2" d="M582.22,514.06a6.23,6.23,0,0,0-1.08-.47c-3-1-6.28.51-9.05,2.08-8.08,4.56-15.33,10-22.61,15.66-2,1.59-4.09,3.08-4.66,5.71-.9,4.09.09,8.92.31,13.06l1.14,21.82c1,19.66,2,39.31,2.69,59s.92,39.54.44,59.3-1.71,39.38-4.08,58.94c-1.17,9.64-2.92,19.16-4.31,28.76-1.9,13.09,13.45,11.91,22.66,11.19,8.17-.64,16.52-4,21.18-10.61,4.12-5.84,4.83-13.28,5.35-20.36a1340.87,1340.87,0,0,0-3.23-233.58C586.55,520.6,585.57,515.93,582.22,514.06Z" transform="translate(1)"/><path id="Bottom_left" data-name="Bottom left" class="cls-2" d="M330.21,666.66c2.65-10.42,20.24-15.25,28.46-19.67l45.47-24.44,46.67-25.08c8.43-4.53,16.29-10,24.58-14.79,10-5.75,20.32-14.48,22.93,1.34a525.11,525.11,0,0,1,6.32,60.35,593.62,593.62,0,0,1-6.82,121.13c-1,6.26-2.68,13.37-8.31,16.29-4.84,2.51-10.71.88-15.85-.93a308.38,308.38,0,0,1-136-95.61c-3.37-4.14-6.74-8.6-7.62-13.87A11.37,11.37,0,0,1,330.21,666.66Z" transform="translate(1)"/><g id="Top_Right" data-name="Top Right"><path class="cls-2" d="M550.41,293.64a4.78,4.78,0,0,0-.53,2.84c.36,5,3.75,10.6,5.8,15.1A576.89,576.89,0,0,1,583.07,384c6.76,22.3,15.19,62.88,15.19,62.88a4.23,4.23,0,0,0,5.72,3.2s11.58-4.16,13-4.63q9.44-3,19-5.44a362.59,362.59,0,0,1,78.15-11.16c12.81-.42,25.77-.49,38.45-2.55,14.8-2.41-9.6-32.83-12.89-36.93-44.11-55-111.06-91-181.25-97.63C555.22,291.47,551.73,291.41,550.41,293.64Z" transform="translate(1)"/></g><g id="Top_Middle" data-name="Top Middle"><path class="cls-2" d="M483.33,303.41q-.13.25-.24.52c-2.37,5.8,5.27,16.51,7.55,21.73q11.25,25.82,20.37,52.59C523.15,413.89,537.56,483,537.56,483c.56,2.69,2.92,3.68,5.23,2.2l27.32-17.5c2.87-1.84,5.92-3.9,7.13-7.21,1.12-3.07.4-6.52-.36-9.73a759,759,0,0,0-46.05-135.71c-2.64-5.88-5.54-12-10.53-15.8-5.37-4.12-12.47-5-19-3.91C496.56,296.15,486.07,298.17,483.33,303.41Z" transform="translate(1)"/></g><path id="top_Left" data-name="top Left" class="cls-2" d="M314.8,436.42c17.84-39,45.29-73.72,80.12-99.31,9-6.64,17.33-13.36,28.64-7.09,8.57,4.75,12.49,15.85,15.39,24.53,4.84,14.47,10.89,28.51,15.76,43q15.6,46.35,26.54,94.08c2.09,9.11,4,19.08-.21,27.46-3.36,6.76-10,11.17-16.55,15.06A364,364,0,0,1,320.14,583c-7.86.91-16.93,1.15-22.39-4.55-3.89-4.07-4.78-10.06-5.28-15.65q-.35-3.95-.57-7.9C289.63,514.24,297.9,473.39,314.8,436.42Z" transform="translate(1)"/></g></svg>